<svg width="194.59499mm" height="115.02351mm" viewBox="0 0 194.59499 115.02351" xmlns="http://www.w3.org/2000/svg">
    <g transform="translate(125.79962,-151.91661) translate(-7659.1341,204.9642)">
        <path d="m 7714.4776,-18.477482 c -8.5368,-0.93531 -21.2678,0.30064 -27.9858,-0.16701 -6.718,-0.46765 -9.8927,5.42869 -11.669,9.7754304 -2.5291,6.18875 -10.019,38.8924396 1.6693,39.5014196 4.583,0.23879 7.6613,-15.53917 7.6613,-15.53917 0,0 -5.2334,-13.9292996 -4.0828,-18.6726196 1.1507,-4.74335 -0.4826,-4.70993 7.2747,-3.47401 7.7576,1.23595 26.6499,-0.46765 28.7655,-3.7412004 2.1156,-3.27354 -1.6332,-7.68284 -1.6332,-7.68284 z" fill="#755438"/>
        <ellipse cx="7688.3574" cy="-30.384026" rx="9.4338121" ry="5.9488063" fill="#fff"/>
        <path d="m 7678.0986,-53.044264 c -0.7972,-0.01503 -1.605,0.02093 -2.4273,0.108003 -11.0252,1.169167 -17.1579,4.27609 -20.9275,11.310937 -6.8606,4.209653 -14.5436,3.969597 -18.144,10.871676 -10.7363,20.581699 5.8817,22.4150501 20.6033,15.079186 -0.4622,1.661769 -1.1017,3.582697 -1.9833,5.869411 -2.4334,6.3107358 -7.1911,5.7797964 -11.9285,7.1385905 -16.0395,4.6006808 -23.7834,4.2507164 -38.427,4.3439292 -13.8938,0.088318 -15.0071,-0.044027 -21.7299,-2.58074585 -8.4117,-3.17391515 -16.8371,-3.68800055 -21.5895,-1.31722815 -1.8309,0.9135798 -5.4086,0.075935 -6.9535,-0.233045 -4.1331,-0.8266112 -7.1364,5.4407594 -11.4882,14.8492103 -1.9894,4.300776 -5.3642,9.714891 -7.4994,12.031318 -2.3884,2.591144 -2.4604,6.02406 -2.1222,6.90499 2.0076,5.232453 12.3494,-4.011453 15.6781,-14.014132 1.1441,-3.438446 2.8443,-7.195291 3.778,-8.3483185 1.6756,-2.0695972 1.6918,-2.033852 1.2287,2.7827815 -0.5397,5.618189 1.1211,10.614263 5.6055,16.858403 l 2.8935,4.028678 -2.1394,3.461306 c -1.1766,1.903809 -5.292,5.793211 -9.1454,8.642879 -7.1961,5.321776 -8.5436,8.027802 -4.2994,8.633566 4.3579,0.621982 18.5208,-9.804109 20.2128,-14.879691 0.9395,-2.819664 4.5419,1.48217 8.9921,10.738882 3.5359,7.355417 4.9993,9.508966 6.4612,9.508966 2.6969,0 2.9265,-4.119456 0.5318,-9.533255 -1.0721,-2.423371 -1.9495,-4.519665 -1.9495,-4.658121 0,-0.138536 1.8071,0.206084 4.0153,0.765836 7.4147,1.879362 36.4946,1.275398 52.2,-1.084157 7.7946,-1.171072 15.7662,-2.485284 17.7146,-2.920761 3.0848,-0.689319 3.543,-0.569569 3.543,0.925009 0,2.454143 -4.369,7.310702 -8.4492,9.392179 -1.9179,0.978509 -4.0277,2.430145 -4.6879,3.226171 -1.0162,1.224068 -0.8321,1.540007 1.1936,2.048457 1.3173,0.330597 3.8793,0.11131 5.6933,-0.48731 6.7553,-2.229485 10.9741,-7.462705 10.9741,-13.61313 0,-2.891657 0.3426,-3.353884 2.902,-3.916044 1.5962,-0.350679 3.0326,-0.490512 3.1906,-0.311071 1.2993,1.467697 4.8744,9.89711 6.2762,14.799601 0.9466,3.310652 2.2169,6.616435 2.8225,7.346315 1.4118,1.700953 2.2405,1.674071 3.7314,-0.122476 1.7103,-2.060681 -0.2688,-10.294832 -4.3015,-17.896575 l -3.1563,-5.948998 4.9165,-3.013233 c 6.5532,-4.01619 9.0435,-15.561654 7.0739,-24.9049381 -0.3577,-1.69799 -1.9486,-5.4751022 -3.5345,-8.39432948 -0.9137,-1.68216792 -4.7612,-8.01319722 1.2742,-5.72471012 6.065,2.2997054 21.7815,2.1640006 27.0206,-0.1984375 2.1915,-0.9882981 3.9848,-2.1030671 3.9848,-2.4773731 0,-0.3742796 3.1174,-0.2614613 5.1081,-0.5798079 3.8465,-0.6150769 5.8941,-3.4168558 6.9747,-6.9597848 0.8242,-2.701978 -2.7842,-8.570013 -5.2462,-8.570013 -0.9639,0 -2.2653,-0.618675 -2.8927,-1.37459 -0.6273,-0.755914 -3.4909,-1.421024 -5.915,-2.80707 -2.4241,-1.38602 -8.033,-6.228715 -12.4648,-10.76161 -8.7998,-9.000437 -15.4853,-13.889831 -23.1912,-14.035325 h -6e-4 z m 13.843,19.558502 c 0.036,-1.85e-4 0.073,-1.58e-4 0.1095,5.03e-4 1.2338,0.02201 2.6512,3.088243 1.5148,4.926833 -1.1766,1.904126 -3.7817,1.062804 -4.0773,-1.379247 -0.2248,-1.855417 0.1858,-3.536288 2.453,-3.548089 z m -8.7752,0.866617 c 2.4297,0 3.4753,3.783515 1.8804,5.70558 -1.1567,1.393958 -2.1791,0.835052 -3.2059,-0.191717 -0.3464,-0.346419 -0.8216,-0.937524 -0.8216,-2.669593 0,-1.580541 0.6091,-2.84427 2.1471,-2.84427 z m 28.2443,13.980511 0.1122,3.48765 c 0.055,1.711883 0.9186,3.093826 0.6966,3.315573 -1.4785,1.478148 -15.4463,2.3576231 -22.8597,1.439175 -8.3611,-1.035897 -8.7283,-2.231125 -12.4907,1.161706 -1.9365,1.7463559 -1.4002,7.6327793 0.8242,12.2276657 1.0369,2.1414581 2.1563,6.4889591 2.4878,9.6609163 0.7385,7.067312 -1.6499,12.834699 -6.6466,16.050683 -5.3573,-7.71151 -3.0876,-20.1404678 0.8398,-34.1481768 1.9241,-6.8626952 4.0494,-13.4942792 14.9571,-12.9690292 8.4526,0.407025 22.0793,-0.226163 22.0793,-0.226163 z"/>
    </g>
</svg>
